<?xml version="1.0" encoding="utf-8"?>
<!-- Generator: Adobe Illustrator 28.0.0, SVG Export Plug-In . SVG Version: 6.00 Build 0)  -->
<svg version="1.1" id="レイヤー_1" xmlns="http://www.w3.org/2000/svg" xmlns:xlink="http://www.w3.org/1999/xlink" x="0px"
	 y="0px" viewBox="0 0 160.1 198.4" style="enable-background:new 0 0 160.1 198.4;" xml:space="preserve">
<style type="text/css">
	.st0{fill:#333333;stroke:#333333;stroke-width:3;stroke-linecap:round;stroke-linejoin:round;stroke-miterlimit:10;}
</style>
<g>
	<path class="st0" d="M155.8,123.7c0,47.3-33.9,71.7-75.7,71.7S4.3,171,4.3,123.7S38.2,31.2,80,31.2S155.8,76.3,155.8,123.7z"/>
	<path class="st0" d="M86.3,30.3c3-1.3,6.4-3.2,9.3-5.9c8.1-7.3,10.7-17.8,10.7-17.8S95.6,8,87.5,15.4c-2.2,2-3.9,7.1-5.4,9.3
		c-1.8-2.9-4.1-8.9-7-11.6c-9.2-8.3-21.3-10-21.3-10s2.9,11.8,12.1,20.2c3.8,3.4,8.1,5.7,11.8,7.2"/>
</g>
</svg>
